<?xml version="1.0" encoding="utf-8"?>
<!-- Generator: Adobe Illustrator 24.1.2, SVG Export Plug-In . SVG Version: 6.00 Build 0)  -->
<svg version="1.1" id="Layer_1" xmlns="http://www.w3.org/2000/svg" xmlns:xlink="http://www.w3.org/1999/xlink" x="0px" y="0px"
	 viewBox="0 0 283.46 283.46" style="enable-background:new 0 0 283.46 283.46;" xml:space="preserve">
<style type="text/css">
	.st0{fill:#A7A9AC;}
	.st1{fill:#D1D3D4;}
</style>
<rect y="-0.3" class="st0" width="283.77" height="283.77"/>
<path d="M1.46,283.07c2.87-11.65,5.92-22.74,11.78-32.87c2.96-5.12,8.11-7.26,13.02-9.25c13.17-5.33,26.4-10.61,39.92-14.93
	c11.48-3.67,22.2-8.33,31.84-15.64c3.71-2.81,5.43-6.13,5.52-10.51c0.14-6.81,0.26-13.63,0.14-20.44c-0.03-1.44-0.89-3.07-1.84-4.24
	c-5.83-7.17-8.29-15.49-8.55-24.54c-0.07-2.45-0.34-3.86-3.33-4.18c-1.49-0.16-3.26-1.97-4.02-3.48c-1.13-2.23-1.52-4.85-2.14-7.32
	c-1.27-5.03-2.58-10.06-3.66-15.13c-0.39-1.83-0.39-3.82-0.17-5.69c0.4-3.31,1.32-6.39,6.21-6.17c-0.75-2.99-1.79-5.58-2-8.24
	c-0.68-8.46-1.25-16.94-1.48-25.43c-0.27-9.89,1.84-19.52,5.16-28.72c1.32-3.68,4.48-6.87,7.3-9.8c2.91-3.02,6.39-5.51,9.69-8.15
	c1.96-1.57,3.86-3.41,6.11-4.35c2.88-1.2,6.09-1.6,9.15-2.4c1.2-0.31,2.63-0.46,3.49-1.22c5.4-4.76,11.65-4.08,17.84-2.71
	c3.32,0.74,6.46,1.8,9.97,1.2c1.47-0.25,3.1,0.34,4.65,0.58c0.52,0.08,1.12,0.55,1.51,0.4c4.35-1.68,7.5,1.67,11.01,2.91
	c2.2,0.78,3.58,3.74,5.48,5.56c0.93,0.89,2.15,1.89,3.33,2.01c1.64,0.16,3.34-0.56,5.03-0.72c3.51-0.34,4.07,0.25,3.81,3.94
	c9.36,3.46,12.01,11.39,13.27,20.33c2.16,15.36,0.07,30.55-1.62,45.77c-0.12,1.04-0.75,2.01-0.91,3.05
	c-0.42,2.66-2.26,5.43,2.32,7.04c1.58,0.55,2.26,4.48,2.75,6.99c0.33,1.67-0.28,3.59-0.7,5.34c-1.61,6.69-3.39,13.34-4.95,20.04
	c-0.65,2.79-2.26,4.33-5.01,4.52c-1.95,0.13-2.48,1.04-2.57,2.83c-0.48,9.63-2.49,18.73-9.06,26.33c-0.93,1.08-1.32,2.95-1.33,4.45
	c-0.08,6.92,0.21,13.84,0.07,20.76c-0.11,5.49,3.83,7.93,7.4,10.73c11.04,8.67,24.22,12.57,37.31,16.75
	c13.49,4.3,26.72,9.28,39.29,15.9c4.46,2.35,7.13,6.24,8.77,10.59c3.19,8.42,5.75,17.08,8.6,25.63c0.75,2.24-0.31,2.91-2.32,2.89
	c-3.73-0.02-7.46-0.03-11.19-0.03c-86.89,0-173.77,0.01-260.66,0C4.35,283.43,3.03,283.21,1.46,283.07z"/>
<path class="st1" d="M225.83,190.19c4.16-4.18,8.32-8.36,12.53-12.59c-0.24-0.01-0.49-0.04-0.74-0.04c-2.35,0-4.69,0-7.04,0
	c-0.24,0-0.49,0-0.72-0.02c-0.78-0.09-1.27-0.57-1.4-1.34c-0.03-0.19-0.03-0.39-0.03-0.58c0-2.71,0-5.42,0-8.13
	c0-0.26,0.02-0.53,0.08-0.79c0.16-0.66,0.66-1.08,1.34-1.14c0.22-0.02,0.44-0.01,0.65-0.01c8.85,0,17.71,0,26.56,0
	c0.22,0,0.44,0.01,0.65,0.01c0.64,0.02,1.39,0.7,1.31,1.39c-0.02,0.19,0,0.39,0,0.58c0,8.86,0,17.71,0,26.57
	c0,0.22,0,0.44-0.01,0.65c-0.04,0.71-0.49,1.22-1.19,1.34c-0.26,0.04-0.53,0.05-0.8,0.05c-2.64,0-5.27,0-7.91,0
	c-0.22,0-0.44,0-0.65-0.03c-0.8-0.1-1.32-0.63-1.38-1.43c-0.02-0.22-0.01-0.44-0.01-0.65c0-2.37,0-4.74,0-7.11c0-0.23,0-0.47,0-0.7
	c-0.05-0.02-0.1-0.05-0.15-0.07c-4.18,4.17-8.37,8.35-12.58,12.55c0.18,0.26,0.34,0.5,0.5,0.73c3.64,5.07,6.05,10.66,7.13,16.81
	c0.62,3.57,0.77,7.16,0.51,10.77c-0.38,5.15-1.62,10.06-3.89,14.7c-2.55,5.23-6.14,9.66-10.48,13.49
	c-4.42,3.89-9.41,6.76-15.06,8.45c-4.11,1.23-8.31,1.75-12.6,1.7c-10.99-0.1-20.42-4.01-28.33-11.61c-4.13-3.97-7.45-8.51-9.7-13.79
	c-1.68-3.95-2.68-8.06-3.03-12.34c-0.44-5.28-0.06-10.49,1.41-15.59c1.69-5.89,4.66-11.07,8.73-15.63
	c4.34-4.87,9.42-8.74,15.48-11.25c3.87-1.6,7.9-2.55,12.08-2.88c5.5-0.44,10.91,0.01,16.21,1.62c4.3,1.31,8.25,3.3,11.89,5.91
	c0.18,0.13,0.35,0.25,0.53,0.37C225.76,190.17,225.81,190.18,225.83,190.19z M171.31,223.61c-0.4,16.06,13.42,29.79,29.51,29.84
	c16.37,0.05,30.08-13.96,29.75-29.71c0.4-15.86-13.28-29.97-29.57-29.71C184.85,193.65,170.92,207.76,171.31,223.61z"/>
</svg>
