<svg id="Layer_1" data-name="Layer 1" xmlns="http://www.w3.org/2000/svg" viewBox="0 0 109.82 54.29"><defs><style>.cls-1{fill:#fff;}.cls-2{fill:silver;}</style></defs><path class="cls-1" d="M50.66,50.4l-.77,3.16c-2.32.92-4.17,1.61-5.56,2.09a14.65,14.65,0,0,1-4.81.73A9.61,9.61,0,0,1,33,54.32a6.64,6.64,0,0,1-2.34-5.22,18.23,18.23,0,0,1,.18-2.52,28,28,0,0,1,.56-2.9l2.9-10.26c.26-1,.48-1.92.66-2.8a12.79,12.79,0,0,0,.26-2.4,3.73,3.73,0,0,0-.81-2.75,4.62,4.62,0,0,0-3.1-.77,8.15,8.15,0,0,0-2.31.35c-.79.24-1.47.46-2,.67l.77-3.16c1.91-.78,3.72-1.44,5.46-2a16.38,16.38,0,0,1,4.93-.83,9.45,9.45,0,0,1,6.46,2A6.73,6.73,0,0,1,46.82,27c0,.45-.06,1.23-.16,2.36a16.47,16.47,0,0,1-.58,3.09L43.19,42.7a27.67,27.67,0,0,0-.64,2.81,14.66,14.66,0,0,0-.28,2.39,3.43,3.43,0,0,0,.91,2.78,5.14,5.14,0,0,0,3.16.74,8.94,8.94,0,0,0,2.39-.37A13.47,13.47,0,0,0,50.66,50.4Z" transform="translate(-3.57 -2.45)"/><path class="cls-1" d="M50.66,11.79a6,6,0,0,1-2,4.55,7.27,7.27,0,0,1-9.76,0,6.12,6.12,0,0,1,0-9.12,7.22,7.22,0,0,1,9.76,0A6,6,0,0,1,50.66,11.79Z" transform="translate(-3.57 -2.45)"/><path class="cls-2" d="M81.11,2.45,69,28.05c-2.64,5.6-5.2,11.36-7.2,16.65h-.16c-.32-5.6-.72-10.81-1.28-16.57L58,2.45H46.07l.19,1.48A8.65,8.65,0,0,1,49.94,6a7.67,7.67,0,0,1,2.56,5.78,7.62,7.62,0,0,1-2.56,5.77,9.4,9.4,0,0,1-1.82,1.31l4.67,37.51H66.15L94,2.45Z" transform="translate(-3.57 -2.45)"/><path class="cls-2" d="M30.72,55.12a7,7,0,0,1-2.45-5.48A19.71,19.71,0,0,1,28.45,47l.06-.34H17L25.33,2.83H13.81L3.57,56.75H33.69A7.93,7.93,0,0,1,30.72,55.12Z" transform="translate(-3.57 -2.45)"/><polygon class="cls-2" points="87.34 11.09 69.08 46.45 67.66 53.92 100.78 53.92 102.62 44.08 81.1 44.08 83.58 31.04 102.7 31.04 104.62 21.36 85.34 21.36 87.34 11.09"/><polygon class="cls-2" points="80.18 0 77.9 0 76.36 8.1 80.18 0"/><polygon class="cls-2" points="93.06 0 87.98 9.84 107.9 9.84 109.82 0 93.06 0"/></svg>