<?xml version="1.0" encoding="utf-8"?>
<!-- Generator: Adobe Illustrator 24.1.2, SVG Export Plug-In . SVG Version: 6.00 Build 0)  -->
<svg version="1.1" id="Layer_1" xmlns="http://www.w3.org/2000/svg" xmlns:xlink="http://www.w3.org/1999/xlink" x="0px" y="0px"
	 viewBox="0 0 283.46 283.46" style="enable-background:new 0 0 283.46 283.46;" xml:space="preserve">
<style type="text/css">
	.st0{fill:#A7A9AC;}
	.st1{fill:#D1D3D4;}
</style>
<rect x="0.05" y="-0.24" class="st0" width="283.77" height="283.77"/>
<path d="M273.15,283.2c-1.47,0.15-2.74,0.4-4,0.4c-85.72,0.01-171.43-0.02-257.15,0.02c-2.76,0-3.97-0.31-3.5-3.67
	c2.07-14.78,9.26-26.17,21.74-34.3c9.71-6.33,20.41-10.46,31.33-14.09c6.08-2.02,5.98-1.87,4.13-7.84
	c-1.82-5.88-3.56-11.8-4.89-17.8c-2.14-9.67,1.14-18.51,4.81-27.23c3.33-7.9,7.14-15.66,9.67-23.81c2.74-8.85,4.2-18.01,3.3-27.5
	c-1.02-10.79-0.37-21.63,1.67-32.29c1.17-6.11,2.33-12.38,4.71-18.08c3.01-7.21,6.78-14.21,11.09-20.72
	c3.98-6,8.65-11.72,13.86-16.66c6.27-5.95,13.97-9.25,23.04-7.49c0.86,0.17,1.83,0.01,2.7-0.2c21.81-5.45,38.76,2.78,52.02,19.45
	c8.77,11.02,17.37,22.49,20.37,36.71c1.42,6.76,1.57,13.79,2.38,20.69c1.24,10.62,2.28,21.28,3.91,31.84
	c1.24,8.06,3.03,16.07,5.02,23.99c1.51,6.05,3.51,12,5.66,17.86c1.86,5.07,1.79,10.19,0.83,15.23c-1.17,6.14-3.12,12.12-4.55,18.21
	c-0.97,4.12-1.59,8.31-2.46,12.45c-0.41,1.95,0.26,2.9,2.11,3.65c7.58,3.05,15.23,5.97,22.59,9.48c8.84,4.22,16.95,9.76,21.84,18.5
	c2.9,5.19,4.66,11.04,6.72,16.68C272.76,278.52,272.75,280.62,273.15,283.2z"/>
<path class="st1" d="M173.56,183.93c0.09-0.52,0.22-1.03,0.25-1.55c0.71-9.77,4.6-18.11,11.35-25.14c4.2-4.38,9.06-7.82,14.74-10.04
	c3.69-1.44,7.51-2.27,11.45-2.59c5.31-0.42,10.53,0.03,15.64,1.55c6.31,1.88,11.74,5.25,16.46,9.79c4.37,4.21,7.83,9.05,10.07,14.72
	c1.33,3.36,2.15,6.84,2.52,10.44c0.67,6.57,0.09,13-2.36,19.15c-4.78,11.99-13.13,20.37-25.45,24.57c-2.25,0.77-4.56,1.27-6.9,1.67
	c-0.11,0.02-0.23,0.05-0.37,0.08c0,3.99,0,7.96,0,12.02c0.31,0,0.59,0,0.87,0c3.91,0,7.82,0,11.72,0c0.22,0,0.43-0.01,0.65,0.01
	c0.84,0.05,1.42,0.62,1.5,1.46c0.02,0.19,0.01,0.38,0.01,0.58c0,2.66-0.03,5.32,0.01,7.98c0.02,1.23-0.76,1.92-1.89,1.91
	c-3.98-0.03-7.96-0.01-11.94-0.01c-0.29,0-0.57,0-0.95,0c-0.01,0.32-0.02,0.6-0.02,0.88c0,3.96-0.02,7.91,0.01,11.87
	c0.01,0.89-0.26,1.53-1.04,1.96c-3.31,0-6.62,0-9.93,0c-0.78-0.5-1-1.23-1-2.14c0.04-3.91,0.02-7.81,0.02-11.72
	c0-0.26,0-0.51,0-0.84c-0.34,0-0.59,0-0.85,0c-3.91,0-7.81,0-11.72,0c-0.22,0-0.43,0.01-0.65-0.01c-0.78-0.09-1.31-0.61-1.43-1.39
	c-0.03-0.21-0.02-0.43-0.02-0.65c0-2.47,0-4.94,0-7.41c0-0.29-0.01-0.58,0-0.86c0.06-1,0.65-1.58,1.65-1.61c0.19-0.01,0.38,0,0.58,0
	c3.86,0,7.72,0,11.58,0c0.26,0,0.52,0,0.81,0c0-4.06,0-8.05,0-12.03c-0.12-0.03-0.18-0.05-0.25-0.06c-2.94-0.48-5.81-1.2-8.6-2.24
	c-7.32-2.74-13.25-7.32-17.96-13.51c-4.88-6.42-7.72-13.62-8.3-21.69c-0.04-0.52-0.17-1.03-0.25-1.55
	C173.56,186.33,173.56,185.13,173.56,183.93z M214.99,156.4c-16.01-0.36-29.74,13.63-29.36,29.38
	c-0.37,15.86,13.37,29.43,29.38,29.43c15.85,0,29.71-13.47,29.36-29.47C244.74,169.76,230.8,156.01,214.99,156.4z"/>
</svg>
