<?xml version="1.0" encoding="utf-8"?>
<!-- Generator: Adobe Illustrator 24.3.0, SVG Export Plug-In . SVG Version: 6.00 Build 0)  -->
<svg version="1.1" id="Layer_1" xmlns="http://www.w3.org/2000/svg" xmlns:xlink="http://www.w3.org/1999/xlink" x="0px" y="0px"
	 viewBox="0 0 115.68 59.39" style="enable-background:new 0 0 115.68 59.39;" xml:space="preserve">
<path d="M50.66,50.4l-0.77,3.16c-2.32,0.91-4.17,1.61-5.55,2.09c-1.38,0.48-2.99,0.72-4.82,0.72c-2.81,0-5-0.69-6.56-2.06
	c-1.56-1.37-2.34-3.11-2.34-5.22c0-0.82,0.06-1.66,0.18-2.51c0.12-0.86,0.3-1.82,0.56-2.9l2.9-10.27c0.26-0.98,0.48-1.92,0.65-2.79
	s0.26-1.68,0.26-2.41c0-1.31-0.27-2.23-0.81-2.74c-0.54-0.52-1.57-0.77-3.1-0.77c-0.75,0-1.52,0.12-2.31,0.35
	c-0.79,0.23-1.46,0.46-2.03,0.67l0.77-3.16c1.9-0.77,3.72-1.44,5.46-1.99c1.74-0.55,3.38-0.83,4.93-0.83c2.79,0,4.94,0.67,6.46,2.02
	c1.51,1.35,2.27,3.1,2.27,5.26c0,0.45-0.05,1.23-0.16,2.36s-0.3,2.16-0.58,3.09L43.19,42.7c-0.23,0.82-0.45,1.76-0.63,2.81
	s-0.28,1.85-0.28,2.39c0,1.36,0.3,2.29,0.91,2.78c0.61,0.49,1.66,0.74,3.16,0.74c0.7,0,1.5-0.12,2.39-0.37
	C49.62,50.8,50.26,50.59,50.66,50.4z"/>
<path d="M50.66,11.79c0,1.78-0.67,3.3-2.02,4.55c-1.35,1.25-2.97,1.88-4.87,1.88s-3.53-0.63-4.89-1.88
	c-1.36-1.25-2.04-2.77-2.04-4.55c0-1.78,0.68-3.3,2.04-4.57c1.36-1.27,2.99-1.9,4.89-1.9s3.52,0.63,4.87,1.9
	C49.99,8.48,50.66,10.01,50.66,11.79z"/>
<path d="M81.11,2.45l-12.08,25.6c-2.64,5.6-5.2,11.36-7.2,16.64h-0.16c-0.32-5.6-0.72-10.8-1.28-16.56l-2.4-25.68H46.07l0.18,1.47
	c1.37,0.37,2.6,1.06,3.68,2.08c1.71,1.6,2.56,3.53,2.56,5.78c0,2.25-0.85,4.18-2.56,5.76c-0.57,0.53-1.18,0.96-1.82,1.31l4.67,37.51
	h13.36L93.99,2.45H81.11z"/>
<path d="M30.72,55.12c-1.64-1.44-2.45-3.27-2.45-5.48c0-0.86,0.06-1.74,0.18-2.64c0.01-0.11,0.04-0.23,0.06-0.34H17.01l8.32-43.84
	H13.81L3.57,56.75h30.12C32.53,56.39,31.54,55.85,30.72,55.12z"/>
<g>
	<polygon points="90.91,13.54 72.65,48.91 71.23,56.37 104.36,56.37 106.2,46.53 84.68,46.53 87.16,33.49 106.28,33.49 108.2,23.81 
		88.92,23.81 	"/>
	<polygon points="83.76,2.45 81.47,2.45 79.94,10.55 	"/>
	<polygon points="96.64,2.45 91.56,12.29 111.48,12.29 113.4,2.45 	"/>
</g>
<g>
</g>
<g>
</g>
<g>
</g>
<g>
</g>
<g>
</g>
<g>
</g>
</svg>
